<?xml version="1.0" ?><!DOCTYPE svg  PUBLIC '-//W3C//DTD SVG 1.1//EN'  'http://www.w3.org/Graphics/SVG/1.1/DTD/svg11.dtd'><svg enable-background="new 0 0 512 512" id="Layer_1" version="1.1" viewBox="0 0 512 512" xml:space="preserve" xmlns="http://www.w3.org/2000/svg" xmlns:xlink="http://www.w3.org/1999/xlink"><path d="M374,511.7H138c-76.2,0-138-61.8-138-138v-236c0-76.2,61.8-138,138-138h236c76.2,0,138,61.8,138,138v236  C512,449.9,450.2,511.7,374,511.7z" fill="#9ABB70"/><g><path d="M324.4,147.7C213.6,266.9,181.5,351.9,181.5,351.9c24.1,27.9,65.1,25.6,65.1,25.6   c43.2,1.4,69.7-25.5,69.7-25.5c53.7-54.1,47.1-207.9,47.1-207.9C352.6,120.5,324.4,147.7,324.4,147.7z" fill="#FFFFFF"/><path d="M153.4,240.9c0,0-17,33.9,11,91l74.4-163.5C238,168.7,171.7,191.8,153.4,240.9z" fill="#FFFFFF"/></g></svg>