<svg xmlns="http://www.w3.org/2000/svg" width="266.667" height="266.667"><defs><clipPath clipPathUnits="userSpaceOnUse" id="a"><path d="M0 200h200V0H0z"/></clipPath></defs><g clip-path="url(#a)" transform="matrix(1.33333 0 0 -1.33333 0 266.667)"><path d="M18.607 137.993c.322 5.901 1.131 11.607 3.535 17.006 2.141 4.808 5.31 8.806 9.764 11.607a140.643 140.643 0 0011.375 6.433c4.508 2.261 10.626.314 13.314-4.246 5.572-9.466 11.548-18.654 17.883-27.625 3.332-4.733 2.141-11.03-2.472-14.542-1.685-1.28-3.295-2.658-5.047-3.834-7.758-5.227-7.705-14.37-4.028-20.309 2.12-3.422 4.725-6.567 7.301-9.682 9.023-10.955 19.29-20.623 30.747-29.002 3.797-2.779 8.087-3.842 12.76-3.048 3.182.531 5.856 2.021 7.886 4.545 1.684 2.104 3.317 4.261 4.942 6.418 3.744 4.965 10.004 5.893 15.18 2.388 6.881-4.665 13.838-9.225 20.794-13.786 1.955-1.288 4.013-2.396 6.02-3.594 5.183-3.108 6.927-9.338 4.03-14.64-1.7-3.115-3.416-6.23-5.28-9.255-5.16-8.372-12.918-12.648-22.503-13.83-10.97-1.357-21.484.785-31.765 4.446-14.625 5.205-27.618 13.24-39.524 23.072-15.299 12.633-28.643 27.04-39.052 44.017-6.574 10.731-11.644 22.121-14.123 34.521-.853 4.261-1.175 8.627-1.737 12.94m5.79-1.692c.26-2.127.53-5.954 1.25-9.69 2.215-11.525 6.843-22.136 12.85-32.147 9.966-16.61 22.928-30.643 37.718-43.029 11.532-9.652 24.12-17.583 38.348-22.697 9.263-3.325 18.743-5.444 28.681-4.426 8.626.884 15.508 4.628 19.964 12.288a377.92 377.92 0 014.357 7.766c1.76 3.205.937 5.946-2.209 7.863-5.077 3.085-10.16 6.148-15.148 9.361-3.932 2.53-7.72 5.28-11.57 7.937-2.816 1.94-5.632 1.528-7.676-1.145-1.587-2.068-3.16-4.15-4.762-6.208-1.595-2.052-3.505-3.767-5.84-4.906-7.983-3.87-15.645-2.927-22.669 2.15C83.3 69.828 70.883 82.28 60.281 96.53c-1.23 1.648-2.375 3.415-3.22 5.28-3.835 8.491-2.338 19.155 6.304 25.153 1.73 1.205 3.28 2.688 5.055 3.82 3.01 1.908 2.785 5.668 1.13 7.921a224.757 224.757 0 00-7.81 11.331c-3.28 5.1-6.395 10.311-9.578 15.485-1.542 2.524-4.395 3.684-6.657 2.487-3.452-1.827-6.889-3.707-10.222-5.752-3.789-2.32-6.44-5.69-8.207-9.764-2.007-4.628-2.59-9.51-2.68-16.19" fill="#f15a2a"/><path d="M18.607 137.993c.322 5.901 1.131 11.607 3.535 17.006 2.141 4.808 5.31 8.806 9.764 11.607a140.643 140.643 0 0011.375 6.433c4.508 2.261 10.626.314 13.314-4.246 5.572-9.466 11.548-18.654 17.883-27.625 3.332-4.733 2.141-11.03-2.472-14.542-1.685-1.28-3.295-2.658-5.047-3.834-7.758-5.227-7.705-14.37-4.028-20.309 2.12-3.422 4.725-6.567 7.301-9.682 9.023-10.955 19.29-20.623 30.747-29.002 3.797-2.779 8.087-3.842 12.76-3.048 3.182.531 5.856 2.021 7.886 4.545 1.684 2.104 3.317 4.261 4.942 6.418 3.744 4.965 10.004 5.893 15.18 2.388 6.881-4.665 13.838-9.225 20.794-13.786 1.955-1.288 4.013-2.396 6.02-3.594 5.183-3.108 6.927-9.338 4.03-14.64-1.7-3.115-3.416-6.23-5.28-9.255-5.16-8.372-12.918-12.648-22.503-13.83-10.97-1.357-21.484.785-31.765 4.446-14.625 5.205-27.618 13.24-39.524 23.072-15.299 12.633-28.643 27.04-39.052 44.017-6.574 10.731-11.644 22.121-14.123 34.521-.853 4.261-1.175 8.627-1.737 12.94zm5.79-1.692c.26-2.127.53-5.954 1.25-9.69 2.215-11.525 6.843-22.136 12.85-32.147 9.966-16.61 22.928-30.643 37.718-43.029 11.532-9.652 24.12-17.583 38.348-22.697 9.263-3.325 18.743-5.444 28.681-4.426 8.626.884 15.508 4.628 19.964 12.288a377.92 377.92 0 014.357 7.766c1.76 3.205.937 5.946-2.209 7.863-5.077 3.085-10.16 6.148-15.148 9.361-3.932 2.53-7.72 5.28-11.57 7.937-2.816 1.94-5.632 1.528-7.676-1.145-1.587-2.068-3.16-4.15-4.762-6.208-1.595-2.052-3.505-3.767-5.84-4.906-7.983-3.87-15.645-2.927-22.669 2.15C83.3 69.828 70.883 82.28 60.281 96.53c-1.23 1.648-2.375 3.415-3.22 5.28-3.835 8.491-2.338 19.155 6.304 25.153 1.73 1.205 3.28 2.688 5.055 3.82 3.01 1.908 2.785 5.668 1.13 7.921a224.757 224.757 0 00-7.81 11.331c-3.28 5.1-6.395 10.311-9.578 15.485-1.542 2.524-4.395 3.684-6.657 2.487-3.452-1.827-6.889-3.707-10.222-5.752-3.789-2.32-6.44-5.69-8.207-9.764-2.007-4.628-2.59-9.51-2.68-16.19z" fill="none" stroke="#f15a2a" stroke-width="5" stroke-miterlimit="10"/><path d="M181.39 94.76c.053-2.2-.72-3.46-2.351-3.676-1.692-.232-2.972.862-3.153 2.703-.6 6.47-1.827 12.813-3.76 19.014-10.138 32.574-38.024 56.769-71.707 62.168-2.786.442-5.624.636-8.44.928-1.94.202-3.16 1.476-2.935 3.13.21 1.58 1.453 2.509 3.34 2.374 5.938-.404 11.794-1.303 17.553-2.808 36.145-9.473 62.999-38.138 70.113-74.898.576-2.958.899-5.954 1.34-8.934" fill="#f15a2a"/><path d="M181.39 94.76c.053-2.2-.72-3.46-2.351-3.676-1.692-.232-2.972.862-3.153 2.703-.6 6.47-1.827 12.813-3.76 19.014-10.138 32.574-38.024 56.769-71.707 62.168-2.786.442-5.624.636-8.44.928-1.94.202-3.16 1.476-2.935 3.13.21 1.58 1.453 2.509 3.34 2.374 5.938-.404 11.794-1.303 17.553-2.808 36.145-9.473 62.999-38.138 70.113-74.898.576-2.958.899-5.954 1.34-8.934z" fill="none" stroke="#f15a2a" stroke-width="5" stroke-miterlimit="10"/><path d="M97.645 161.23c1.776-.411 4.135-.815 6.403-1.504 29.878-9.083 48.748-28.756 56.59-58.994.134-.516.261-1.055.261-1.587.016-1.355-1.056-2.501-2.396-2.658-1.421-.165-2.613.636-3.017 2.11-.584 2.12-.996 4.3-1.707 6.374-9.375 27.4-28.171 44.323-56.447 50.666-2.015.449-2.914 1.213-2.974 2.734-.068 1.624 1.093 2.845 3.287 2.86" fill="#f15a2a"/><path d="M97.645 161.23c1.776-.411 4.135-.815 6.403-1.504 29.878-9.083 48.748-28.756 56.59-58.994.134-.516.261-1.055.261-1.587.016-1.355-1.056-2.501-2.396-2.658-1.421-.165-2.613.636-3.017 2.11-.584 2.12-.996 4.3-1.707 6.374-9.375 27.4-28.171 44.323-56.447 50.666-2.015.449-2.914 1.213-2.974 2.734-.068 1.624 1.093 2.845 3.287 2.86z" fill="none" stroke="#f15a2a" stroke-width="5" stroke-miterlimit="10"/><path d="M134.95 102.634c-1.415.022-2.142.899-2.695 2.082-3.879 8.185-9.42 15.059-16.513 20.675-4.14 3.288-8.67 5.924-13.568 7.946-1.468.606-2.067 1.632-1.895 3.047.15 1.198 1.048 2.179 2.291 2.299a3.633 3.633 0 001.693-.277c15.051-6.365 26.075-16.954 33.128-31.683.997-2.067-.284-4.126-2.44-4.09" fill="#f15a2a"/><path d="M134.95 102.634c-1.415.022-2.142.899-2.695 2.082-3.879 8.185-9.42 15.059-16.513 20.675-4.14 3.288-8.67 5.924-13.568 7.946-1.468.606-2.067 1.632-1.895 3.047.15 1.198 1.048 2.179 2.291 2.299a3.633 3.633 0 001.693-.277c15.051-6.365 26.075-16.954 33.128-31.683.997-2.067-.284-4.126-2.44-4.09z" fill="none" stroke="#f15a2a" stroke-width="5" stroke-miterlimit="10"/></g></svg>